<svg width="52" height="50" viewBox="0 0 52 50" fill="none" xmlns="http://www.w3.org/2000/svg">
<path d="M26.0417 34.375C17.1286 34.375 9.73734 27.2916 9.73734 18.75V1.04163H42.346V18.75C42.346 27.2916 34.9547 34.375 26.0417 34.375Z" stroke="#0F2137" stroke-width="1.5" stroke-miterlimit="10" stroke-linecap="round" stroke-linejoin="round"/>
<path d="M26.041 34.375C24.954 38.5417 26.4758 46.25 16.6932 48.9583C22.9975 48.9583 29.3019 48.9583 35.6062 48.9583C25.6062 46.25 27.128 38.5417 26.041 34.375Z" stroke="#0F2137" stroke-width="1.5" stroke-miterlimit="10" stroke-linecap="round" stroke-linejoin="round"/>
<path d="M42.346 19.7917V3.125H51.0417V11.4583C51.0417 16.0417 47.1286 19.7917 42.346 19.7917Z" stroke="#0F2137" stroke-width="1.5" stroke-miterlimit="10" stroke-linecap="round" stroke-linejoin="round"/>
<path d="M9.73667 19.7917V3.125H1.04102V11.4583C1.04102 16.0417 4.95406 19.7917 9.73667 19.7917Z" stroke="#0F2137" stroke-width="1.5" stroke-miterlimit="10" stroke-linecap="round" stroke-linejoin="round"/>
</svg>
