<svg width="52" height="51" viewBox="0 0 52 51" fill="none" xmlns="http://www.w3.org/2000/svg">
<path d="M49.0349 18.9673V47.3516C49.0349 48.6616 48.1616 49.535 46.8515 49.535H5.36682C4.05677 49.535 3.18341 48.6616 3.18341 47.3516V18.9673" stroke="#0F2137" stroke-width="1.5" stroke-miterlimit="10" stroke-linecap="round" stroke-linejoin="round"/>
<path d="M1 14.6004L3.40175 1.5H48.5983L51 14.6004C51 17.0022 48.8166 18.9672 45.9782 18.9672C43.1397 18.9672 40.9563 17.0022 40.9563 14.6004C40.9563 17.0022 38.7729 18.9672 35.9345 18.9672C33.0961 18.9672 30.9127 17.0022 30.9127 14.6004C30.9127 17.0022 28.7293 18.9672 25.8908 18.9672C23.0524 18.9672 20.869 17.0022 20.869 14.6004C20.869 17.0022 18.6856 18.9672 15.8472 18.9672C13.0087 18.9672 10.8253 17.0022 10.8253 14.6004C10.8253 17.0022 8.64192 18.9672 5.80349 18.9672C2.96507 18.9672 1 17.0022 1 14.6004Z" stroke="#0F2137" stroke-width="1.5" stroke-miterlimit="10" stroke-linecap="round" stroke-linejoin="round"/>
<path d="M35.9345 49.535H16.2838V32.0677C16.2838 29.666 18.2489 27.7009 20.6506 27.7009H31.5677C33.9694 27.7009 35.9345 29.666 35.9345 32.0677V49.535Z" stroke="#0F2137" stroke-width="1.5" stroke-miterlimit="10" stroke-linecap="round" stroke-linejoin="round"/>
</svg>
